<svg width="200" height="182" viewBox="0 0 200 182" fill="none" xmlns="http://www.w3.org/2000/svg">
<path fill-rule="evenodd" clip-rule="evenodd" d="M11.3257 163.075C-6.27757 141.442 -2.99763 109.623 18.6517 92.0071L117.101 11.8971C138.751 -5.71925 170.571 -2.4629 188.175 19.1704C205.778 40.8036 202.498 72.6217 180.849 90.238L82.3988 170.348C60.7495 187.964 28.929 184.708 11.3257 163.075ZM38.0184 115.807C29.5234 122.72 28.2364 135.205 35.1437 143.694C42.0511 152.182 54.5371 153.46 63.0321 146.548L161.482 66.4376C169.977 59.5252 171.264 47.0401 164.357 38.5514C157.449 30.0628 144.963 28.785 136.468 35.6975L38.0184 115.807Z" fill="#018754"/>
</svg>
