<svg width="1440" height="799" viewBox="0 0 1440 799" fill="none" xmlns="http://www.w3.org/2000/svg">
<g opacity="0.15">
<path d="M706.64 879.001C706.64 1011.55 599.187 1119 466.638 1119C334.092 1119 226.639 1011.55 226.639 879.001C226.639 746.452 334.092 638.999 466.638 638.999C599.187 638.999 706.64 746.452 706.64 879.001Z" fill="#F5BD33"/>
<path d="M706.64 399C706.64 531.549 599.187 638.999 466.638 638.999C334.092 638.999 226.639 531.549 226.639 399C226.639 266.451 334.092 159.001 466.638 159.001C599.187 159.001 706.64 266.451 706.64 399Z" fill="#7257FF"/>
<path d="M706.64 -81.0001C706.64 51.5484 599.187 159.001 466.638 159.001C334.092 159.001 226.639 51.5484 226.639 -81.0001C226.639 -213.548 334.092 -321 466.638 -321C599.187 -321 706.64 -213.548 706.64 -81.0001Z" fill="#018754"/>
<path d="M1186.64 879.001C1186.64 1011.55 1079.19 1119 946.639 1119C814.089 1119 706.64 1011.55 706.64 879.001C706.64 746.452 814.089 638.999 946.639 638.999C1079.19 638.999 1186.64 746.452 1186.64 879.001Z" fill="#7257FF"/>
<path d="M1186.64 399C1186.64 531.549 1079.19 638.999 946.639 638.999C814.089 638.999 706.64 531.549 706.64 399C706.64 266.451 814.089 159.001 946.639 159.001C1079.19 159.001 1186.64 266.451 1186.64 399Z" fill="#018754"/>
<path d="M1186.64 -81.0001C1186.64 51.5484 1079.19 159.001 946.639 159.001C814.089 159.001 706.64 51.5484 706.64 -81.0001C706.64 -213.548 814.089 -321 946.639 -321C1079.19 -321 1186.64 -213.548 1186.64 -81.0001Z" fill="#F5BD33"/>
<path d="M0.000244141 158.635C126.334 151.703 226.639 47.0642 226.639 -81.0002C226.639 -209.065 126.334 -313.702 0.000244141 -320.634V158.635Z" fill="#7257FF"/>
<path d="M0.000244141 638.633V159.367C126.334 166.296 226.639 270.935 226.639 399C226.639 527.065 126.334 631.701 0.000244141 638.633Z" fill="#F5BD33"/>
<path d="M0.000244141 1118.63V639.365C126.334 646.297 226.639 750.933 226.639 879.001C226.639 1007.07 126.334 1111.7 0.000244141 1118.63Z" fill="#018754"/>
<path d="M1440 -320.634V158.635C1435.58 158.877 1431.12 159.001 1426.64 159.001C1294.09 159.001 1186.64 51.5484 1186.64 -81.0001C1186.64 -213.548 1294.09 -321 1426.64 -321C1431.12 -321 1435.58 -320.877 1440 -320.634Z" fill="#7257FF"/>
<path d="M1440 159.367V638.633C1435.58 638.878 1431.12 638.999 1426.64 638.999C1294.09 638.999 1186.64 531.549 1186.64 399C1186.64 266.451 1294.09 159.001 1426.64 159.001C1431.12 159.001 1435.58 159.122 1440 159.367Z" fill="#F5BD33"/>
<path d="M1440 1118.63C1435.58 1118.88 1431.12 1119 1426.64 1119C1294.09 1119 1186.64 1011.55 1186.64 879.001C1186.64 746.452 1294.09 638.999 1426.64 638.999C1431.12 638.999 1435.58 639.123 1440 639.365V1118.63Z" fill="#018754"/>
</g>
</svg>
